<?xml version="1.0" encoding="UTF-8" standalone="no"?>
<!-- Created with Inkscape (http://www.inkscape.org/) -->

<svg
   xmlns:dc="http://purl.org/dc/elements/1.1/"
   xmlns:cc="http://creativecommons.org/ns#"
   xmlns:rdf="http://www.w3.org/1999/02/22-rdf-syntax-ns#"
   xmlns:svg="http://www.w3.org/2000/svg"
   xmlns="http://www.w3.org/2000/svg"
   xmlns:sodipodi="http://sodipodi.sourceforge.net/DTD/sodipodi-0.dtd"
   xmlns:inkscape="http://www.inkscape.org/namespaces/inkscape"
   width="57.799mm"
   height="15.706mm"
   viewBox="0 0 57.799 15.706"
   version="1.1"
   id="svg8"
   inkscape:version="0.92.5 (2060ec1f9f, 2020-04-08)"
   sodipodi:docname="nefilopez.svg">
  <defs
     id="defs2" />
  <sodipodi:namedview
     id="base"
     pagecolor="#ffffff"
     bordercolor="#666666"
     borderopacity="1.0"
     inkscape:pageopacity="0.0"
     inkscape:pageshadow="2"
     inkscape:zoom="2.8"
     inkscape:cx="144.26614"
     inkscape:cy="-1.2900886"
     inkscape:document-units="mm"
     inkscape:current-layer="text18"
     showgrid="false"
     inkscape:window-width="1920"
     inkscape:window-height="1016"
     inkscape:window-x="0"
     inkscape:window-y="27"
     inkscape:window-maximized="1" />
  <metadata
     id="metadata5">
    <rdf:RDF>
      <cc:Work
         rdf:about="">
        <dc:format>image/svg+xml</dc:format>
        <dc:type
           rdf:resource="http://purl.org/dc/dcmitype/StillImage" />
        <dc:title></dc:title>
      </cc:Work>
    </rdf:RDF>
  </metadata>
  <g
     inkscape:label="Capa 1"
     inkscape:groupmode="layer"
     id="layer1"
     transform="translate(0,-281.294)">
    <text
       xml:space="preserve"
       style="font-style:normal;font-variant:normal;font-weight:normal;font-stretch:normal;font-size:10.58333302px;line-height:1.25;font-family:'Kaushan Script';-inkscape-font-specification:'Kaushan Script';letter-spacing:0px;word-spacing:0px;fill:#000000;fill-opacity:1;stroke:none;stroke-width:0.26458332"
       x="64.255951"
       y="91.380951"
       id="text12"><tspan
         sodipodi:role="line"
         id="tspan10"
         x="64.255951"
         y="100.61037"
         style="stroke-width:0.26458332"></tspan><tspan
         sodipodi:role="line"
         x="64.255951"
         y="113.83954"
         style="stroke-width:0.26458332"
         id="tspan14" /></text>
    <g
       aria-label="Nefi López"
       transform="scale(0.9999894,1.0000106)"
       style="font-style:normal;font-variant:normal;font-weight:normal;font-stretch:normal;font-size:27.41851234px;line-height:1.25;font-family:'Kaushan Script';-inkscape-font-specification:'Kaushan Script';letter-spacing:0px;word-spacing:0px;fill:#000000;fill-opacity:1;stroke:none;stroke-width:0.68546277"
       id="text18">
      <path
         d="m 1.3687923,292.89048 c -0.028223,-0.11289 -0.042334,-0.23989 -0.042334,-0.63501 0,-2.24369 1.4957936,-7.35196 2.5682494,-9.05943 0.1128901,3.2597 0.3810041,5.91262 1.1571234,9.05943 0.1975576,0.39512 0.9454544,0.6209 1.8062413,0.6209 0.056445,0 0.1270013,0 0.1834464,-0.0141 -0.014111,-0.0141 -0.014111,-0.0282 -0.014111,-0.0423 0.042334,-2.2578 1.8767977,-9.60977 3.6689273,-10.34355 -0.211668,-0.40923 -0.8184527,-0.86079 -1.2276792,-0.93134 -0.705563,0.0847 -2.1308003,4.72727 -3.033921,9.25698 -0.5785617,-2.03202 -0.6773405,-3.96526 -0.6773405,-6.01139 0,-1.03013 0.070556,-2.03203 0.1552239,-2.48359 -0.084668,-0.254 -1.67924,-0.87489 -2.2013567,-0.87489 l 0.098779,0.59267 C 2.5682494,283.78872 4.4822693e-8,290.12467 4.4822693e-8,291.83213 c 0,0.50801 0.296336465177307,0.73379 1.368792255177307,1.05835 z"
         style="font-size:14.11126041px;stroke-width:0.68546277"
         id="path59" />
      <path
         d="m 14.365238,285.97596 c -0.381004,-0.47978 -0.79023,-0.74789 -1.213568,-0.80434 -1.862687,0 -3.9793757,2.72347 -3.9793757,5.03772 0,1.1289 0.7620081,2.01791 2.0602437,2.15902 0.88901,-0.19755 1.975577,-1.0019 2.822252,-2.11669 -0.07056,-0.0847 -0.141112,-0.15522 -0.239891,-0.23989 -0.592673,0.63501 -1.56635,1.65102 -2.582361,1.65102 -0.536228,0 -0.649118,-0.64912 -0.649118,-1.1289 0,-0.127 0.01411,-0.254 0.01411,-0.36689 2.398914,-0.95957 3.626594,-1.8768 3.767706,-4.19105 z m -0.973677,0.46567 c -0.07056,1.28413 -1.185346,2.44125 -2.681139,3.18915 0.45156,-1.7498 1.651017,-3.04803 2.681139,-3.18915 z"
         style="font-size:14.11126041px;stroke-width:0.68546277"
         id="path61" />
      <path
         d="m 20.997502,285.62318 c -0.804342,0 -1.509905,0.0423 -2.159023,0.0847 0.578562,-1.69335 1.382904,-3.2597 2.836364,-3.2597 0.197557,0 0.423338,0.0141 0.649118,0.0282 -0.05645,0.36689 -0.07056,0.49389 -0.07056,0.60678 0,0.38101 0.465672,0.64912 0.465672,1.05835 0,0.29633 0.08467,0.40922 0.169335,0.40922 0.254003,-0.19755 0.508005,-0.64911 0.747897,-1.35468 0.09878,-0.43745 0.282225,-0.93134 0.45156,-1.19945 -0.183446,-0.127 -0.33867,-0.18345 -0.437449,-0.18345 -0.282225,0 -0.762008,0.127 -0.987788,0.254 -0.282225,0 -1.241791,-0.57856 -1.834464,-0.57856 -1.67924,0 -2.90692,1.72157 -3.824151,4.44505 -0.790231,0.127 -1.354681,0.26811 -1.651018,0.35278 0,0.11289 0.05645,0.26811 0.127001,0.33867 0.141113,-0.0141 0.649118,-0.0847 1.354681,-0.127 -0.733785,2.54003 -1.439348,4.92483 -2.102577,6.71696 -0.903121,2.42714 -1.495794,3.24559 -2.469471,3.24559 -0.465672,0 -0.931343,-0.19756 -1.199457,-0.50801 -0.09878,0.0564 -0.183446,0.23989 -0.183446,0.3669 0.45156,0.43744 1.058344,0.67734 1.707462,0.67734 2.314247,0 3.217367,-1.69335 6.025508,-10.58345 0.197558,-0.0141 0.409227,-0.0141 0.620896,-0.0141 0.592673,0 1.213568,0.0282 1.806241,0.0706 -0.67734,0.97367 -1.326458,3.34436 -1.326458,4.40271 0,0.83256 0.889009,1.19946 1.030122,1.19946 0.08467,0 0.04233,-0.127 0.08467,-0.46568 0.07056,-0.62089 1.016011,-3.83826 2.328358,-5.55983 -0.04233,-0.0988 -0.127001,-0.21167 -0.211669,-0.29634 -0.578562,-0.11289 -1.749796,-0.127 -1.947354,-0.127 z"
         style="font-size:14.11126041px;stroke-width:0.68546277"
         id="path63" />
      <path
         d="m 31.778474,291.01368 c -0.832564,0.0564 -1.270014,0.127 -2.032022,0.31045 -0.860786,0.21167 -1.185345,0.26811 -1.778018,0.29634 0.01411,-0.55034 0.818453,-2.34247 1.651017,-4.54383 0.860787,-2.24369 1.608684,-4.02171 1.890909,-4.50149 -0.508005,-0.7479 -1.030122,-1.1289 -1.778019,-1.28413 -0.45156,2.07436 -0.67734,2.94926 -1.368792,4.96717 -1.058345,3.09036 -1.848575,4.61438 -2.215468,5.46105 0.366893,0.6209 0.832564,1.08657 1.255902,1.2418 1.834464,-0.29634 2.709362,-0.38101 3.612483,-0.38101 0.381004,0 0.719674,0.0141 1.044233,0.0564 0.04233,-0.14112 0.07056,-0.28223 0.07056,-0.45156 0,-0.3669 -0.11289,-0.76201 -0.352781,-1.17124 z"
         style="font-size:14.11126041px;stroke-width:0.68546277"
         id="path65" />
      <path
         d="m 34.558366,292.31192 c 2.257801,-0.47979 3.880596,-2.4977 3.880596,-4.85428 0,-0.90312 -0.239891,-1.32645 -0.747896,-1.32645 -0.08467,0 -0.169336,0.0141 -0.254003,0.0141 -0.282225,-0.4939 -0.592673,-0.84668 -0.889009,-1.0019 -0.43745,0 -0.945455,0.19756 -1.45346,0.57856 -1.326459,0.97368 -2.300136,2.79403 -2.300136,4.30393 0,1.27002 0.691452,2.17314 1.763908,2.28603 z m 0.719674,-4.44505 c 0.465672,-0.60678 1.128901,-1.21357 1.947354,-1.45346 0.127001,0.19756 0.183446,0.46567 0.183446,0.94546 0,2.20135 -1.227679,4.00759 -2.906919,4.37449 -0.183447,-0.0564 -0.366893,-0.55034 -0.366893,-1.0019 0,-0.7479 0.493894,-2.0038 1.143012,-2.86459 z m 4.430936,-6.16662 c -0.790231,1.29824 -1.806241,2.30014 -2.638806,2.61058 0.22578,0.18345 0.465672,0.26812 0.776119,0.26812 0.592673,0 1.241791,-0.31045 2.68114,-1.27002 0,-0.52211 -0.423338,-1.36879 -0.818453,-1.60868 z"
         style="font-size:14.11126041px;stroke-width:0.68546277"
         id="path67" />
      <path
         d="m 38.086179,296.48885 c 0.08467,0.0423 0.127002,0.0988 0.282226,0.26811 0.08467,0.15523 0.169335,0.21167 0.268114,0.22578 0.663229,-2.7658 1.538127,-5.67272 2.074355,-6.87218 0.381004,-0.88901 0.522117,-1.05834 1.862686,-2.72347 0.564451,-0.70557 1.100679,-1.10068 1.820353,-1.48168 -0.45156,2.41302 -1.862686,4.78371 -3.316146,5.6445 0.08467,0.21167 0.366892,0.36689 0.705563,0.36689 0.719674,0 1.890909,-0.73378 2.540027,-1.56635 0.832564,-1.07245 1.312347,-2.45536 1.312347,-3.81004 0,-0.62089 -0.508006,-1.05834 -1.22768,-1.05834 -0.45156,0 -1.086567,0.39511 -1.778019,1.11479 -0.620895,0.64912 -0.874898,0.98779 -1.058344,1.29823 0.268114,-0.98778 1.143012,-2.70936 1.67924,-3.20325 -0.127002,-0.22578 -0.818453,-0.50801 -1.467571,-0.60679 -0.338671,0.29634 -0.874898,1.25591 -1.016011,1.69335 -0.197558,0.6209 -0.606784,1.76391 -1.636906,4.36038 -0.818453,2.07436 -1.368792,4.10638 -1.368792,4.91072 0,0.42334 0.02822,0.77612 0.09878,1.01601 0.01411,0.22578 0.11289,0.39512 0.22578,0.42334 z"
         style="font-size:14.11126041px;stroke-width:0.68546277"
         id="path69" />
      <path
         d="m 51.19553,285.97596 c -0.381004,-0.47978 -0.790231,-0.74789 -1.213569,-0.80434 -1.862686,0 -3.979375,2.72347 -3.979375,5.03772 0,1.1289 0.762008,2.01791 2.060244,2.15902 0.889009,-0.19755 1.975577,-1.0019 2.822252,-2.11669 -0.07056,-0.0847 -0.141112,-0.15522 -0.239891,-0.23989 -0.592673,0.63501 -1.56635,1.65102 -2.582361,1.65102 -0.536228,0 -0.649118,-0.64912 -0.649118,-1.1289 0,-0.127 0.01411,-0.254 0.01411,-0.36689 2.398915,-0.95957 3.626594,-1.8768 3.767707,-4.19105 z m -0.973677,0.46567 c -0.07056,1.28413 -1.185346,2.44125 -2.68114,3.18915 0.451561,-1.7498 1.651018,-3.04803 2.68114,-3.18915 z"
         style="font-size:14.11126041px;stroke-width:0.68546277"
         id="path71" />
      <path
         d="m 51.336632,291.62047 c 0.02822,0.29633 0.211669,0.56445 0.451561,0.66323 0.282225,-0.42334 0.649118,-0.63501 1.100678,-0.63501 0.705563,0 1.735685,0.47978 2.765807,0.47978 0.522117,0 0.987788,-0.14111 1.411126,-0.40923 0.01411,-0.127 0.02822,-0.21166 0.02822,-0.35278 0,-0.52211 -0.239892,-0.97367 -0.66323,-1.24179 -0.493894,0.42334 -1.495793,0.73379 -2.35658,0.73379 -0.33867,0 -0.606784,-0.0423 -0.804342,-0.127 1.072456,-1.48169 3.35848,-3.45726 4.529715,-3.90882 0,-0.3669 -0.169335,-0.84668 -0.338671,-0.97368 -0.169335,0.0847 -0.465671,0.15522 -0.663229,0.15522 -0.719674,0 -1.90502,-0.80434 -2.963364,-0.80434 -0.479783,0 -0.945455,0.18345 -1.270014,0.4939 -0.01411,0.0423 -0.01411,0.0988 -0.01411,0.26811 0,0.49389 0.211669,0.91723 0.649118,1.29824 0.409226,-0.33867 0.818453,-0.47979 1.368792,-0.47979 0.282225,0 0.719674,0.0706 1.495794,0.2399 -2.45536,1.7639 -4.727273,3.97937 -4.727273,4.60027 z"
         style="font-size:14.11126041px;stroke-width:0.68546277"
         id="path73" />
    </g>
  </g>
</svg>
